# xmcd
#
# Track frame offsets:
#	150
#	19484
#	35376
#	54558
#	70502
#	87932
#	106894
#	126443
#	141009
#	158432
#
# Disc length: 2343 seconds
#
# Revision: 0
# Processed by: cddbd v1.5.2PL0 Copyright (c) Steve Scherf et al.
# Submitted via: audiograbber 1.83.01
#
DISCID=7d09250a
DTITLE=Melissa Manchester - Hey Ricky (2006 Wounded Bird  Dynamically Compresse
DTITLE=d)
DYEAR=1982
DGENRE=
TTITLE0=You Should Hear How He Talks About You
TTITLE1=Slowly
TTITLE2=Hey Ricky (You're A Low-Down Heel)
TTITLE3=I'll Always Love You
TTITLE4=Race To The End
TTITLE5=Wish We Were Heroes
TTITLE6=Come In From The Rain
TTITLE7=Looking For The Perfect Ahh
TTITLE8=Your Place or Mine
TTITLE9=Someone To Watch Over Me
EXTD=
EXTT0=
EXTT1=
EXTT2=
EXTT3=
EXTT4=
EXTT5=
EXTT6=
EXTT7=
EXTT8=
EXTT9=
PLAYORDER=
